<?xml version="1.0" encoding="iso-8859-1"?>
<!DOCTYPE svg PUBLIC "-//W3C//DTD SVG 1.1//EN" "http://www.w3.org/Graphics/SVG/1.1/DTD/svg11.dtd">
<svg 
 version="1.1" xmlns="http://www.w3.org/2000/svg" xmlns:xlink="http://www.w3.org/1999/xlink" x="0px" y="0px" width="512px"
	 height="512px" viewBox="0 0 512 512" style="enable-background:new 0 0 512 512;" xml:space="preserve"
><g fill="#ffffff" id="afcae5a789ccd549f9c6e2a2f80e4b2f"><g fill="#ffffff"></g><path style="display: inline;" d="M439.15,35.239l-33.053,72.52c-17.988-19.564-46.773-29.346-86.348-29.346
		c-57.34,0-96.58,35.08-117.715,105.235h173.03l-18.55,50.932H192.251c-0.675,8.996-1.012,17.875-1.012,26.645
		c0,9.227,0.337,18.216,1.012,26.985h142.676l-18.212,50.931H201.698c19.11,62.96,56.438,94.443,111.98,94.443
		c44.971,0,78.141-16.072,99.502-48.233v92.419c-26.534,22.483-61.838,33.73-105.91,33.73c-52.617,0-95.678-15.969-129.185-47.899
		c-31.029-29.68-51.83-71.167-62.399-124.46H72.85V288.21h36.092c-1.349-18.892-1.463-36.767-0.337-53.63H72.85v-50.932h42.837
		c11.691-53.065,34.068-96.012,67.121-128.848C219.013,18.599,262.972,0.5,314.69,0.5C366.407,0.5,407.898,12.084,439.15,35.239z"></path></g></svg>