<?xml version="1.0" encoding="iso-8859-1"?>
<!-- Generator: Adobe Illustrator 18.1.1, SVG Export Plug-In . SVG Version: 6.00 Build 0)  -->
<svg xmlns="http://www.w3.org/2000/svg" xmlns:xlink="http://www.w3.org/1999/xlink" version="1.1" id="Capa_1" x="0px" y="0px" viewBox="0 0 44.25 44.25" style="enable-background:new 0 0 44.25 44.25;" xml:space="preserve" width="512px" height="512px">
<g>
	<g>
		<path d="M3.22,21.029l0.097,10.682l-3.22,0.027L0,21.059L3.22,21.029z M26.65,20.397l0.039,4.417    L7.211,24.988l-0.036-3.995l-3.217,0.03l0.095,10.681l3.217-0.026l-0.042-4.846l19.478-0.177l0.039,4.42l3.221-0.026l-0.1-10.683    L26.65,20.397z M13.634,12.935h-3.219v10.68h3.219V12.935z M30.609,20.359l0.097,10.68l3.219-0.028L33.829,20.33L30.609,20.359z     M37.068,16.93H17.59v-3.995h-3.219v10.68h3.219v-4.843h19.478v4.419h3.223V12.512h-3.223V16.93L37.068,16.93z M41.029,12.512    v10.68h3.221v-10.68H41.029z" fill="#FFFFFF"/>
	</g>
</g>
<g>
</g>
<g>
</g>
<g>
</g>
<g>
</g>
<g>
</g>
<g>
</g>
<g>
</g>
<g>
</g>
<g>
</g>
<g>
</g>
<g>
</g>
<g>
</g>
<g>
</g>
<g>
</g>
<g>
</g>
</svg>
