<?xml version="1.0" encoding="UTF-8" standalone="no"?>
<svg width="60px" height="60px" viewBox="0 0 60 60" version="1.1" xmlns="http://www.w3.org/2000/svg" xmlns:xlink="http://www.w3.org/1999/xlink" xmlns:sketch="http://www.bohemiancoding.com/sketch/ns">
    <!-- Generator: Sketch 3.2.2 (9983) - http://www.bohemiancoding.com/sketch -->
    <title>Fitness</title>
    <desc>Created with Sketch.</desc>
    <defs></defs>
    <g id="stroked" stroke="none" stroke-width="1" fill="none" fill-rule="evenodd" sketch:type="MSPage">
        <g id="Activities" sketch:type="MSLayerGroup" transform="translate(-254.000000, -718.000000)" stroke="#ffffff" stroke-width="2" stroke-linecap="round" stroke-linejoin="round">
            <g id="Fitness" transform="translate(261.000000, 720.000000)" sketch:type="MSShapeGroup">
                <g id="Rectangle-1059-+-Rectangle-1059-+-Rectangle-1060" transform="translate(28.929492, 16.495191) rotate(-30.000000) translate(-28.929492, -16.495191) translate(8.929492, 8.995191)">
                    <rect id="Rectangle-1059" x="0" y="0" width="9" height="15" rx="2"></rect>
                    <rect id="Rectangle-1059" x="31" y="0" width="9" height="15" rx="2"></rect>
                    <path d="M8,5 C8,5 16,4 20,4 C24,4 32,5 32,5 L32,10 C32,10 24,11 20,11 C16,11 8,10 8,10 L8,5 Z" id="Rectangle-1060"></path>
                </g>
                <g id="Rectangle-1059-+-Rectangle-1059-+-Rectangle-1060" transform="translate(21.500000, 42.821616) rotate(-11.000000) translate(-21.500000, -42.821616) translate(1.500000, 35.321616)">
                    <rect id="Rectangle-1059" x="0" y="0" width="9" height="15" rx="2"></rect>
                    <rect id="Rectangle-1059" x="31" y="0" width="9" height="15" rx="2"></rect>
                    <path d="M8,5 C8,5 16,4 20,4 C24,4 32,5 32,5 L32,10 C32,10 24,11 20,11 C16,11 8,10 8,10 L8,5 Z" id="Rectangle-1060"></path>
                </g>
            </g>
        </g>
    </g>
</svg>