<?xml version="1.0" encoding="UTF-8" standalone="no"?>
<svg width="60px" height="60px" viewBox="0 0 60 60" version="1.1" xmlns="http://www.w3.org/2000/svg" xmlns:xlink="http://www.w3.org/1999/xlink" xmlns:sketch="http://www.bohemiancoding.com/sketch/ns">
    <!-- Generator: Sketch 3.2.2 (9983) - http://www.bohemiancoding.com/sketch -->
    <title>Muscleman</title>
    <desc>Created with Sketch.</desc>
    <defs></defs>
    <g id="stroked" stroke="none" stroke-width="1" fill="none" fill-rule="evenodd" sketch:type="MSPage">
        <g id="Activities" sketch:type="MSLayerGroup" transform="translate(-854.000000, -1318.000000)" stroke="#ffffff" stroke-width="2" stroke-linecap="round" stroke-linejoin="round">
            <g id="Muscleman" transform="translate(859.000000, 1320.000000)" sketch:type="MSShapeGroup">
                <path d="M0.121085696,16.9392224 C0.121085696,16.9392224 2.31218584,20.1921327 2.8920132,20.3331513 C3.94213844,20.5885501 8.94615542,22.8115182 8.94615542,22.8115182 C8.94615542,22.8115182 11.3603044,18.751982 15.8857278,18.751982 C20.4111512,18.751982 23.6555513,22.8115181 23.6555513,22.8115181 L21.3542975,10.7872224 C21.3542975,10.7872224 16.6582825,13.1397369 14.5061842,10.7872225 C12.3540858,8.43470801 12.8661023,5.56216731 14.5061842,4.64763333 C16.146266,3.73309934 24.1546875,5.88585327 24.1546875,5.88585327 L35.2466655,26.6070295 C35.2466655,26.6070295 29.7395854,29.9229643 25.5469413,32.4629364 C21.3542971,35.0029085 13.6834515,32.9073261 10.8125245,35.9917081 C7.94159757,39.0760902 4.10078006,46.9504703 4.62497812,56.0944141" id="Path-2196" transform="translate(17.683876, 30.257874) scale(-1, 1) translate(-17.683876, -30.257874) "></path>
                <path d="M42,22 C46.418278,22 50,17.0751322 50,11 C50,4.92486775 50,1.15770557e-15 42,0 C34,-1.34711148e-15 34,4.92486775 34,11 C34,17.0751322 37.581722,22 42,22 Z" id="Oval-930"></path>
                <path d="M13.520357,27.2064673 C13.520357,27.2064673 18.5759966,33.4192509 24.4591436,29.2471298 C27.1878555,33.1232709 29.4006849,37.5846267 32.2486648,37.5846268 C35.0966446,37.584627 45.358474,35.2154076 45.358474,35.2154076 L45.4943627,32.2281542" id="Path-2197"></path>
                <path d="M32.6761175,34.4643381 L34,34.4643382" id="Path-2198"></path>
            </g>
        </g>
    </g>
</svg>