<?xml version="1.0" encoding="iso-8859-1"?>
<!DOCTYPE svg PUBLIC "-//W3C//DTD SVG 1.1//EN" "http://www.w3.org/Graphics/SVG/1.1/DTD/svg11.dtd">
<svg 
 version="1.1" xmlns="http://www.w3.org/2000/svg" xmlns:xlink="http://www.w3.org/1999/xlink" x="0px" y="0px" width="512px"
	 height="512px" viewBox="0 0 512 512" style="enable-background:new 0 0 512 512;" xml:space="preserve"
><g fill="#e2e2e2" id="afcae5a789ccd549f9c6e2a2f80e58ca"><g fill="#e2e2e2"></g><path style="display: inline;" d="M479.342,315.85C484.71,295.764,511.5,277.786,511.5,256c0-21.782-26.79-39.76-32.158-59.854
		c-5.556-20.789,8.487-49.715-2.042-67.921c-10.684-18.464-42.857-20.693-57.845-35.68c-14.979-14.987-17.217-47.158-35.681-57.845
		c-18.202-10.529-47.128,3.51-67.917-2.046C295.764,27.285,277.782,0.5,256,0.5c-21.791,0-39.769,26.785-59.862,32.162
		c-20.788,5.547-49.715-8.492-67.913,2.038c-18.464,10.688-20.701,42.858-35.688,57.845c-14.982,14.979-47.157,17.216-57.837,35.68
		c-10.533,18.206,3.51,47.133-2.046,67.917C27.281,216.236,0.5,234.213,0.5,256c0,21.786,26.781,39.764,32.153,59.857
		c5.556,20.793-8.491,49.711,2.042,67.918c10.684,18.463,42.858,20.696,57.841,35.684c14.987,14.983,17.217,47.158,35.685,57.841
		c18.202,10.53,47.129-3.51,67.921,2.046C216.236,484.715,234.209,511.5,256,511.5c21.782,0,39.764-26.785,59.857-32.154
		c20.784-5.556,49.711,8.484,67.913-2.046c18.468-10.683,20.701-42.857,35.685-57.841c14.987-14.987,47.157-17.221,57.841-35.684
		C487.829,365.568,473.782,336.643,479.342,315.85z M322.645,169.527c-10.496-11.411-27.289-17.116-50.373-17.116
		c-33.446,0-56.339,20.46-68.669,61.388h100.936l-10.82,29.704h-95.821c-0.391,5.252-0.59,10.434-0.59,15.545
		c0,5.385,0.199,10.625,0.59,15.739h83.229L270.5,304.497h-67.089c11.145,36.728,32.919,55.092,65.322,55.092
		c26.231,0,45.577-9.373,58.04-28.133v53.911c-15.478,13.116-36.075,19.675-61.783,19.675c-30.689,0-55.812-9.315-75.356-27.938
		c-18.102-17.316-30.232-41.519-36.399-72.607H128.25v-29.709h21.051c-0.786-11.016-0.853-21.445-0.2-31.285H128.25v-29.704h24.984
		c6.82-30.96,19.874-56.007,39.156-75.161c21.117-21.122,46.759-31.68,76.929-31.68s54.373,6.757,72.604,20.264L322.645,169.527z"></path></g></svg>